<svg viewBox="0 0 64 64" xmlns="http://www.w3.org/2000/svg">
  <circle cx="32" cy="32" r="32" fill="#F7931A"/>
  <path fill="#fff" d="M46.103 27.444c.65-4.357-2.667-6.7-7.2-8.262l1.471-5.9-3.59-.895-1.432 5.745c-.943-.235-1.913-.457-2.876-.677l1.443-5.785-3.589-.895-1.471 5.9c-.781-.178-1.548-.354-2.293-.539l.004-.018-4.952-1.236-.955 3.834s2.668.611 2.612.649c1.456.363 1.719 1.328 1.675 2.092l-1.677 6.726c.1.026.23.063.374.122l-.38-.094-2.35 9.42c-.178.443-.63 1.107-1.65.854.036.052-2.614-.652-2.614-.652l-1.782 4.107 4.673 1.165c.87.218 1.722.446 2.561.66l-1.486 5.965 3.587.895 1.471-5.9c.98.265 1.93.51 2.86.741l-1.466 5.875 3.59.895 1.486-5.953c6.124 1.158 10.728.692 12.665-4.846 1.561-4.46-.078-7.034-3.3-8.713 2.347-.541 4.114-2.085 4.585-5.275zm-8.205 11.51c-1.11 4.46-8.617 2.05-11.05 1.444l1.97-7.9c2.434.607 10.24 1.81 9.08 6.456zm1.111-11.574c-1.012 4.057-7.262 1.997-9.288 1.49l1.787-7.166c2.027.507 8.557 1.45 7.501 5.676z"/>
</svg>
